<svg xmlns="http://www.w3.org/2000/svg" width="24" height="25" fill="none"><path fill="#000" fill-opacity=".6" d="M18.692 19H8.308c-.505 0-.933-.175-1.283-.525a1.745 1.745 0 0 1-.525-1.283V3.808c0-.505.175-.933.525-1.283.35-.35.778-.525 1.283-.525h6.942l5.25 5.25v9.942c0 .505-.175.933-.525 1.283-.35.35-.778.525-1.283.525ZM14.5 8V3.5H8.308a.294.294 0 0 0-.212.096.294.294 0 0 0-.096.212v13.384c0 .077.032.148.096.212a.294.294 0 0 0 .212.096h10.384a.294.294 0 0 0 .212-.096.294.294 0 0 0 .096-.212V8h-4.5ZM4.308 23c-.505 0-.933-.175-1.283-.525a1.745 1.745 0 0 1-.525-1.283V8H4v13.192c0 .077.032.148.096.212a.294.294 0 0 0 .212.096H14.5V23H4.308Z"/></svg>