<svg xmlns="http://www.w3.org/2000/svg" width="24" height="25" fill="none"><path fill="#7019FF" d="M4 17.288v1.904c0 .077.032.148.096.212a.294.294 0 0 0 .212.096h15.384a.294.294 0 0 0 .212-.096.294.294 0 0 0 .096-.212v-1.904H4ZM4.308 7.02h2.767a1.918 1.918 0 0 1-.187-.475 2.189 2.189 0 0 1-.061-.525c0-.698.242-1.29.726-1.774a2.413 2.413 0 0 1 1.774-.726c.42 0 .807.11 1.163.327.357.218.668.488.933.812l.558.746.558-.746c.255-.336.563-.61.926-.821a2.286 2.286 0 0 1 1.172-.318 2.41 2.41 0 0 1 1.772.726c.483.484.726 1.076.726 1.774 0 .184-.02.359-.057.525a1.618 1.618 0 0 1-.191.475h2.805c.505 0 .933.175 1.283.525.35.35.525.778.525 1.283v10.365c0 .505-.175.933-.525 1.283-.35.35-.778.525-1.283.525H4.308c-.505 0-.933-.175-1.283-.525a1.745 1.745 0 0 1-.525-1.283V8.827c0-.505.175-.933.525-1.283.35-.35.778-.525 1.283-.525ZM4 14.711h16V8.827a.294.294 0 0 0-.096-.212.294.294 0 0 0-.212-.096h-5.465l2.042 2.793-1.196.861-3.092-4.196-3.093 4.196-1.196-.861 2.012-2.793H4.308a.294.294 0 0 0-.212.096.294.294 0 0 0-.096.212v5.884ZM9.327 7.02c.283 0 .52-.096.712-.287a.967.967 0 0 0 .288-.713.967.967 0 0 0-.288-.712.968.968 0 0 0-.712-.288.968.968 0 0 0-.713.288.968.968 0 0 0-.287.712c0 .284.096.521.287.713.192.191.43.287.713.287Zm5.308 0c.283 0 .52-.096.712-.287a.968.968 0 0 0 .288-.713.968.968 0 0 0-.288-.712.968.968 0 0 0-.712-.288.967.967 0 0 0-.713.288.967.967 0 0 0-.287.712c0 .284.095.521.287.713.192.191.43.287.713.287Z"/></svg>