<svg xmlns="http://www.w3.org/2000/svg" width="39" height="38" fill="none"><path fill="#7019FF" d="M8.6 32.458c-.788 0-1.461-.28-2.022-.84a2.756 2.756 0 0 1-.84-2.022V8.404c0-.787.28-1.461.84-2.021.56-.561 1.234-.841 2.021-.841h13.763v2.375H8.6a.474.474 0 0 0-.35.137.474.474 0 0 0-.137.35v21.192c0 .142.046.259.137.35a.474.474 0 0 0 .35.137h21.193a.474.474 0 0 0 .35-.137.474.474 0 0 0 .137-.35V15.833h2.375v13.763c0 .787-.28 1.461-.84 2.021-.561.561-1.235.841-2.022.841H8.599ZM27.72 13.641v-3.167h-3.166V8.1h3.166V4.933h2.375v3.166h3.167v2.375h-3.167v3.167h-2.375Zm-16.838 12.88H27.63l-5.207-6.942-4.445 5.785-3.167-4.05-3.928 5.207Z"/></svg>