<svg xmlns="http://www.w3.org/2000/svg" width="80" height="81" fill="none"><path fill="#00BA00" d="M40 80.5c22.091 0 40-17.909 40-40S62.091.5 40 .5 0 18.409 0 40.5s17.909 40 40 40Z"/><path fill="#fff" fill-rule="evenodd" d="M31.675 52.992 21.05 41.623a3.857 3.857 0 0 1 .184-5.468 3.918 3.918 0 0 1 5.508.205l8.216 8.727L47.971 33.01a3.9 3.9 0 0 1 .367-.296l6.105-5.673a3.918 3.918 0 0 1 5.508.182 3.857 3.857 0 0 1-.184 5.468L41.062 50.008l-3.416 3.151a4.228 4.228 0 0 1-5.948-.212l-.023.045Z" clip-rule="evenodd"/></svg>