<svg xmlns="http://www.w3.org/2000/svg" width="51" height="51" fill="none"><g clip-path="url(#a)"><path fill="#00BA00" d="M25.5 50.5c13.807 0 25-11.193 25-25S39.307.5 25.5.5s-25 11.193-25 25 11.193 25 25 25Z"/><path fill="#fff" fill-rule="evenodd" d="m20.404 32.595-6.739-7.2a2.44 2.44 0 0 1 .117-3.463 2.486 2.486 0 0 1 3.493.13l5.21 5.526 8.252-7.648c.074-.067.152-.13.233-.187l3.872-3.593a2.486 2.486 0 0 1 3.493.115 2.44 2.44 0 0 1-.117 3.463L26.357 30.705l-2.167 1.996a2.683 2.683 0 0 1-3.771-.135l-.015.03Z" clip-rule="evenodd"/></g><defs><clipPath id="a"><path fill="#fff" d="M.5.5h50v50H.5z"/></clipPath></defs></svg>
