<svg xmlns="http://www.w3.org/2000/svg" width="31" height="31" fill="none"><g clip-path="url(#a)"><path fill="#F6EE86" d="M29.796 21.813V11.099a2.542 2.542 0 1 0-5.084 0v2.63l-6.887-6.887a2.203 2.203 0 1 0-3.116 3.116l-1.573-1.573A2.203 2.203 0 1 0 10.02 11.5l.91.91a2.204 2.204 0 0 0-3.115 3.117l2.247 2.247a2.203 2.203 0 1 0-3.116 3.116l6.938 6.938a9.12 9.12 0 0 0 12.897 0l.894-.894a7.22 7.22 0 0 0 2.121-5.122Z"/><path fill="#EED076" d="m10.385 18.099-.323-.324-.801-.511a2.203 2.203 0 0 0-2.315 3.627l4.284 4.284c-1.394-2.413-1.675-5.408-.845-7.076Zm-2.57-2.571 1.206 1.206c-.216-.67-.745-3.36.186-4.96a2.203 2.203 0 0 0-1.393 3.755Zm11.164-.86a.437.437 0 0 1-.31-.13l-4.27-4.27a.44.44 0 0 1 .62-.62l4.27 4.27a.44.44 0 0 1-.31.75Zm-3.066 3.166a.437.437 0 0 1-.31-.129l-4.983-4.983a.44.44 0 0 1 .621-.621l4.983 4.983a.44.44 0 0 1-.31.75Z"/><path fill="#EED076" d="M13.349 21.502a.438.438 0 0 1-.311-.13l-3.287-3.286a.44.44 0 0 1 .621-.622l3.287 3.287a.44.44 0 0 1-.31.75Z"/><path fill="#fff" d="M21.683 6.978a3.334 3.334 0 0 0-2.563-2.476.44.44 0 1 1 .176-.86 4.216 4.216 0 0 1 3.241 3.13.44.44 0 1 1-.854.206Zm3.182-.297a7.153 7.153 0 0 0-5.498-5.31.44.44 0 0 1 .177-.862 8.035 8.035 0 0 1 6.176 5.966.44.44 0 1 1-.855.206ZM7.476 26.09a4.216 4.216 0 0 1-3.131-3.24.44.44 0 0 1 .861-.177 3.334 3.334 0 0 0 2.476 2.563.44.44 0 0 1-.034.862.44.44 0 0 1-.172-.007Zm-.297 3.183a8.035 8.035 0 0 1-5.966-6.176.44.44 0 0 1 .86-.176 7.153 7.153 0 0 0 5.312 5.498.439.439 0 1 1-.206.854Z"/><path fill="#EED076" d="M22.51 23.04a.44.44 0 0 1-.404-.264 7.182 7.182 0 0 1 .459-6.596.439.439 0 1 1 .75.458 6.302 6.302 0 0 0-.403 5.788.438.438 0 0 1-.403.615Z"/></g><defs><clipPath id="a"><path fill="#fff" d="M.5.5h30v30H.5z"/></clipPath></defs></svg>