<svg xmlns="http://www.w3.org/2000/svg" width="32" height="32" fill="none"><rect width="32" height="32" fill="#fff" rx="16"/><path fill="#34AADF" fill-rule="evenodd" d="M28.82 16c0 7.18-5.82 13-13 13s-13-5.82-13-13 5.82-13 13-13 13 5.82 13 13Zm-11.754-3.989c-2.234.965-8.673 3.704-8.673 3.704-1.526.618-.633 1.196-.633 1.196s1.303.463 2.42.81c1.116.348 1.712-.038 1.712-.038s2.605-1.775 5.248-3.665c1.861-1.312 1.415-.232.968.231a144.288 144.288 0 0 1-3.909 3.859c-.595.54-.297 1.003-.037 1.234.758.665 2.543 1.874 3.353 2.423.225.152.374.253.407.278.186.155 1.228.85 1.86.695.634-.154.708-1.042.708-1.042s.484-3.164.93-6.058l.243-1.643c.2-1.348.363-2.443.39-2.833.112-1.312-1.228-.772-1.228-.772s-2.903 1.235-3.76 1.621Z" clip-rule="evenodd"/></svg>